<?xml version="1.0"?>
<svg xmlns:rdf="http://www.w3.org/1999/02/22-rdf-syntax-ns#" xmlns="http://www.w3.org/2000/svg" xmlns:cc="http://creativecommons.org/ns#" xmlns:dc="http://purl.org/dc/elements/1.1/" xmlns:svg="http://www.w3.org/2000/svg" id="svg2645" viewBox="0 0 107.97 85.767" version="1.0">
  <g id="layer1" transform="translate(-321.02 -489.48)">
    <g id="g13578" transform="translate(289.18 239.04)">
      <path id="path11886" stroke-linejoin="round" d="m110.21 307.58c8.55-2.05 14.01-5.19 14.01-8.69 0-0.42-0.25-0.79-0.4-1.19 0.91 0.23 1.81 0.47 2.81 0.47 5.57 0 10.09-3.78 10.09-8.44 0-4.65-4.52-8.44-10.09-8.44-0.68 0-1.26 0.24-1.91 0.35 0.57-1.86 0.94-3.76 0.94-5.78 0-12.33-11.15-22.35-24.94-22.35v0c-9.762 0-18.144 5.07-22.247 12.38-1.639-0.92-3.446-1.47-5.375-1.47-5.833 0-10.687 4.69-12.188 11.06-2.56-1.01-5.538-1.62-8.718-1.62-9.542 0-17.282 5.22-17.282 11.65 0 5.81 6.348 10.59 14.594 11.47-0.369 0.63-0.656 1.25-0.656 1.91 0 2.86 3.64 5.47 9.622 7.46" stroke="#6798e9" stroke-linecap="round" stroke-miterlimit=".5" stroke-width="6.154" fill="none"/>
      <path id="path11884" stroke-linejoin="round" d="m110.1 307.61c0.04-0.01 0.07-0.02 0.11-0.03" stroke="#6798e9" stroke-linecap="round" stroke-miterlimit=".5" stroke-width="6.154" fill="none"/>
      <path id="path11073" stroke-linejoin="round" d="m58.47 306.35c0.042 0.01 0.085 0.02 0.127 0.04" stroke="#6798e9" stroke-linecap="round" stroke-miterlimit=".5" stroke-width="6.154" fill="none"/>
      <path id="path11873" d="m138.99 349.22c0.66-2.23 16.6 3.45 17.88 1.51s-10.4-14.19-8.57-15.6c1.84-1.43 11.4 12.54 13.58 11.72 2.17-0.81-0.09-17.59 2.23-17.66 2.33-0.07 1.85 16.85 4.1 17.47 2.23 0.62 10.27-14.28 12.18-12.98 1.93 1.32-8.41 14.72-6.95 16.55 1.44 1.81 16.7-5.52 17.48-3.34 0.79 2.19-15.45 6.96-15.35 9.29 0.11 2.32 16.76 5.36 16.11 7.58-0.65 2.24-16.6-3.45-17.88-1.5-1.27 1.93 10.41 14.18 8.58 15.6-1.85 1.42-11.4-12.55-13.59-11.73-2.16 0.82 0.09 17.59-2.22 17.66-2.34 0.07-1.85-16.85-4.1-17.47-2.23-0.61-10.27 14.29-12.19 12.98s8.41-14.72 6.96-16.54c-1.45-1.81-16.71 5.52-17.49 3.34-0.79-2.2 15.46-6.97 15.35-9.3-0.1-2.31-16.76-5.35-16.11-7.58z" transform="matrix(.47721 0 0 .47721 -3.2359 128)" stroke="#a6a6a6" stroke-linecap="round" stroke-miterlimit=".5" stroke-width=".28064" fill="#9e9e9e"/>
      <path id="path11888" d="m96.126 297.2c-8.251 7.27 1.437 13.47 5.124 3.49l2.83-9.26-7.954 5.77z" stroke="#6798e9" stroke-miterlimit="3.2" stroke-width="4" fill="#6798e9"/>
      <path id="path11890" d="m62.968 322.64c-8.251 7.27 1.436 13.47 5.12 3.49l2.832-9.26-7.952 5.77z" stroke="#6798e9" stroke-miterlimit="3.2" stroke-width="4" fill="#6798e9"/>
      <path id="path11894" d="m138.99 349.22c0.66-2.23 16.6 3.45 17.88 1.51s-10.4-14.19-8.57-15.6c1.84-1.43 11.4 12.54 13.58 11.72 2.17-0.81-0.09-17.59 2.23-17.66 2.33-0.07 1.85 16.85 4.1 17.47 2.23 0.62 10.27-14.28 12.18-12.98 1.93 1.32-8.41 14.72-6.95 16.55 1.44 1.81 16.7-5.52 17.48-3.34 0.79 2.19-15.45 6.96-15.35 9.29 0.11 2.32 16.76 5.36 16.11 7.58-0.65 2.24-16.6-3.45-17.88-1.5-1.27 1.93 10.41 14.18 8.58 15.6-1.85 1.42-11.4-12.55-13.59-11.73-2.16 0.82 0.09 17.59-2.22 17.66-2.34 0.07-1.85-16.85-4.1-17.47-2.23-0.61-10.27 14.29-12.19 12.98s8.41-14.72 6.96-16.54c-1.45-1.81-16.71 5.52-17.49 3.34-0.79-2.2 15.46-6.97 15.35-9.3-0.1-2.31-16.76-5.35-16.11-7.58z" transform="matrix(.47721 0 0 .47721 12.662 152.99)" stroke="#a6a6a6" stroke-linecap="round" stroke-miterlimit=".5" stroke-width=".28064" fill="#9e9e9e"/>
    </g>
  </g>
  <metadata>
    <rdf:RDF>
      <cc:Work>
        <dc:format>image/svg+xml</dc:format>
        <dc:type rdf:resource="http://purl.org/dc/dcmitype/StillImage"/>
        <cc:license rdf:resource="http://creativecommons.org/licenses/publicdomain/"/>
        <dc:publisher>
          <cc:Agent rdf:about="http://openclipart.org/">
            <dc:title>Openclipart</dc:title>
          </cc:Agent>
        </dc:publisher>
        <dc:title>simple weather symbols</dc:title>
        <dc:date>2008-02-08T23:54:06</dc:date>
        <dc:description>clip art, clipart, clouds, clouds, icon, icon, image, media, png, public domain, rain, rain, snow, snow, sun, sun, svg, symbol, symbol, weather, weather, </dc:description>
        <dc:source>http://openclipart.org/detail/14711/simple-weather-symbols-by-anonymous-14711</dc:source>
        <dc:creator>
          <cc:Agent>
            <dc:title>Anonymous</dc:title>
          </cc:Agent>
        </dc:creator>
        <dc:subject>
          <rdf:Bag>
            <rdf:li>clip art</rdf:li>
            <rdf:li>clipart</rdf:li>
            <rdf:li>clouds</rdf:li>
            <rdf:li>icon</rdf:li>
            <rdf:li>image</rdf:li>
            <rdf:li>media</rdf:li>
            <rdf:li>png</rdf:li>
            <rdf:li>public domain</rdf:li>
            <rdf:li>rain</rdf:li>
            <rdf:li>snow</rdf:li>
            <rdf:li>sun</rdf:li>
            <rdf:li>svg</rdf:li>
            <rdf:li>symbol</rdf:li>
            <rdf:li>weather</rdf:li>
          </rdf:Bag>
        </dc:subject>
      </cc:Work>
      <cc:License rdf:about="http://creativecommons.org/licenses/publicdomain/">
        <cc:permits rdf:resource="http://creativecommons.org/ns#Reproduction"/>
        <cc:permits rdf:resource="http://creativecommons.org/ns#Distribution"/>
        <cc:permits rdf:resource="http://creativecommons.org/ns#DerivativeWorks"/>
      </cc:License>
    </rdf:RDF>
  </metadata>
</svg>
