<?xml version="1.0"?>
<svg xmlns:rdf="http://www.w3.org/1999/02/22-rdf-syntax-ns#" xmlns="http://www.w3.org/2000/svg" xmlns:cc="http://creativecommons.org/ns#" xmlns:dc="http://purl.org/dc/elements/1.1/" xmlns:svg="http://www.w3.org/2000/svg" id="svg2509" viewBox="0 0 107.97 88.327" version="1.0">
  <g id="layer1" transform="translate(-321.02 -488.2)">
    <g id="g13532" stroke="#6798e9" transform="translate(279.38 346.31)">
      <path id="path9481" stroke-linejoin="round" d="m110.53 144.97c-9.76 0-18.146 5.06-22.249 12.37-1.638-0.91-3.446-1.46-5.375-1.46-5.833 0-10.687 4.69-12.187 11.06-2.561-1.01-5.539-1.63-8.719-1.63-9.541 0-17.281 5.22-17.281 11.66 0 5.81 6.347 10.58 14.593 11.47-0.369 0.62-0.656 1.25-0.656 1.9 0 6.17 16.882 11.19 37.688 11.19s37.686-5.02 37.686-11.19c0-0.41-0.26-0.78-0.41-1.18 0.92 0.22 1.82 0.46 2.82 0.46 5.56 0.01 10.09-3.78 10.09-8.43 0-4.66-4.53-8.44-10.09-8.44-0.68 0-1.26 0.24-1.91 0.34 0.56-1.86 0.94-3.76 0.94-5.78 0-12.32-11.16-22.34-24.94-22.34z" stroke-linecap="round" stroke-miterlimit=".5" stroke-width="6.154" fill="#fff"/>
      <path id="path6522" d="m83.862 219.53c-8.251 7.27 1.437 13.47 5.12 3.49l2.833-9.26-7.953 5.77z" stroke-width="4" stroke-miterlimit="3.2" fill="#6798e9"/>
      <path id="path11969" stroke-linejoin="round" d="m110.53 144.97c-9.76 0-18.146 5.06-22.249 12.37-1.638-0.91-3.446-1.46-5.375-1.46-5.833 0-10.687 4.69-12.187 11.06-2.561-1.01-5.539-1.63-8.719-1.63-9.541 0-17.281 5.22-17.281 11.66 0 5.81 6.347 10.58 14.593 11.47-0.369 0.62-0.656 1.25-0.656 1.9 0 6.17 16.882 11.19 37.688 11.19s37.686-5.02 37.686-11.19c0-0.41-0.26-0.78-0.41-1.18 0.92 0.22 1.82 0.46 2.82 0.46 5.56 0.01 10.09-3.78 10.09-8.43 0-4.66-4.53-8.44-10.09-8.44-0.68 0-1.26 0.24-1.91 0.34 0.56-1.86 0.94-3.76 0.94-5.78 0-12.32-11.16-22.34-24.94-22.34z" stroke-linecap="round" stroke-miterlimit=".5" stroke-width="6.154" fill="#fff"/>
    </g>
  </g>
  <metadata>
    <rdf:RDF>
      <cc:Work>
        <dc:format>image/svg+xml</dc:format>
        <dc:type rdf:resource="http://purl.org/dc/dcmitype/StillImage"/>
        <cc:license rdf:resource="http://creativecommons.org/licenses/publicdomain/"/>
        <dc:publisher>
          <cc:Agent rdf:about="http://openclipart.org/">
            <dc:title>Openclipart</dc:title>
          </cc:Agent>
        </dc:publisher>
        <dc:title>simple weather symbols</dc:title>
        <dc:date>2008-02-08T23:54:06</dc:date>
        <dc:description>clip art, clipart, clouds, clouds, icon, icon, image, media, png, public domain, rain, rain, snow, snow, sun, sun, svg, symbol, symbol, weather, weather, </dc:description>
        <dc:source>http://openclipart.org/detail/14707/simple-weather-symbols-by-anonymous-14707</dc:source>
        <dc:creator>
          <cc:Agent>
            <dc:title>Anonymous</dc:title>
          </cc:Agent>
        </dc:creator>
        <dc:subject>
          <rdf:Bag>
            <rdf:li>clip art</rdf:li>
            <rdf:li>clipart</rdf:li>
            <rdf:li>clouds</rdf:li>
            <rdf:li>icon</rdf:li>
            <rdf:li>image</rdf:li>
            <rdf:li>media</rdf:li>
            <rdf:li>png</rdf:li>
            <rdf:li>public domain</rdf:li>
            <rdf:li>rain</rdf:li>
            <rdf:li>snow</rdf:li>
            <rdf:li>sun</rdf:li>
            <rdf:li>svg</rdf:li>
            <rdf:li>symbol</rdf:li>
            <rdf:li>weather</rdf:li>
          </rdf:Bag>
        </dc:subject>
      </cc:Work>
      <cc:License rdf:about="http://creativecommons.org/licenses/publicdomain/">
        <cc:permits rdf:resource="http://creativecommons.org/ns#Reproduction"/>
        <cc:permits rdf:resource="http://creativecommons.org/ns#Distribution"/>
        <cc:permits rdf:resource="http://creativecommons.org/ns#DerivativeWorks"/>
      </cc:License>
    </rdf:RDF>
  </metadata>
</svg>
